<?xml version="1.0" encoding="UTF-8" standalone="no"?>
<!-- Created with Inkscape (http://www.inkscape.org/) -->

<svg
   xmlns:dc="http://purl.org/dc/elements/1.1/"
   xmlns:cc="http://creativecommons.org/ns#"
   xmlns:rdf="http://www.w3.org/1999/02/22-rdf-syntax-ns#"
   xmlns:svg="http://www.w3.org/2000/svg"
   xmlns="http://www.w3.org/2000/svg"
   xmlns:sodipodi="http://sodipodi.sourceforge.net/DTD/sodipodi-0.dtd"
   xmlns:inkscape="http://www.inkscape.org/namespaces/inkscape"
   width="512"
   height="512"
   viewBox="0 0 512 512"
   version="1.1"
   id="svg8"
   inkscape:version="0.92.3 (2405546, 2018-03-11)"
   sodipodi:docname="logo.svg">
  <defs
     id="defs2" />
  <sodipodi:namedview
     id="base"
     pagecolor="#ffffff"
     bordercolor="#666666"
     borderopacity="1.0"
     inkscape:pageopacity="0.0"
     inkscape:pageshadow="2"
     inkscape:zoom="1.6601562"
     inkscape:cx="249.97647"
     inkscape:cy="256"
     inkscape:document-units="px"
     inkscape:current-layer="layer2"
     showgrid="true"
     units="px"
     inkscape:window-width="1920"
     inkscape:window-height="1017"
     inkscape:window-x="1912"
     inkscape:window-y="-8"
     inkscape:window-maximized="1">
    <inkscape:grid
       type="xygrid"
       id="grid3713"
       originy="-6"
       snapvisiblegridlinesonly="false" />
  </sodipodi:namedview>
  <metadata
     id="metadata5">
    <rdf:RDF>
      <cc:Work
         rdf:about="">
        <dc:format>image/svg+xml</dc:format>
        <dc:type
           rdf:resource="http://purl.org/dc/dcmitype/StillImage" />
        <dc:title></dc:title>
      </cc:Work>
    </rdf:RDF>
  </metadata>
  <g
     inkscape:label="Ebene 1"
     inkscape:groupmode="layer"
     id="layer1"
     transform="translate(0,-161.53332)"
     style="opacity:0.82119206" />
  <g
     inkscape:groupmode="layer"
     id="layer2"
     inkscape:label="Ebene 2">
    <path
       style="fill:#5599ff;stroke:none;stroke-width:1px;stroke-linecap:butt;stroke-linejoin:miter;stroke-opacity:1"
       d="m 265,456 -62,46 -10,3 L 156,354 29,267 26,256 99,203 56,97 l 8,-8 99,1 11,9 -6,18 -15,-11 H 83 l 20,68 16,18 45,-26 11,-42 -4,-4 7,-20 7,7 26,-84 6,-5 80,65 -2,4 32,28 h 4 l -13,32 -24,-11 7,-16 -72,-63 -35,92 14,15 -39,51 -17,-13 -77,53 71,65 22,-11 29,46 -15,14 28,92 73,-51 -1,-27 24,-6 12,37 -39,34 z"
       id="path3729"
       inkscape:connector-curvature="0"
       sodipodi:nodetypes="ccccccccccccccccccccccccccccccccccccccccccccccc" />
    <path
       style="fill:#5599ff;stroke:none;stroke-width:1px;stroke-linecap:butt;stroke-linejoin:miter;stroke-opacity:1"
       d="m 312,373 26,-9 8,27 87,3 -17,-90 -23,-5 1,-62 20,3 33,-91 -94,-8 -12,14 -15,-6 12,-35 38,1 V 94 L 354,27 317,53 300,78 286,65 303,44 362,4 394,88 v 27 l 81,11 6,4 -1,7 -21,70 -5,20 -22,55 33,111 v 21 l -5,3 -136,-2 z"
       id="path3731"
       inkscape:connector-curvature="0"
       sodipodi:nodetypes="cccccccccccccccccccccccccccccccccc" />
    <path
       style="fill:#deaa87;stroke:none;stroke-width:1px;stroke-linecap:butt;stroke-linejoin:miter;stroke-opacity:1"
       d="m 213,453 -26,-81 18,-15 -39,-59 -19,14 -59,-55 62,-45 21,14 45,-64 -15,-13 31,-80 61,53 -8,18 54,24 14,-15 83,8 -26,76 -20,-2 -1,70 21,6 13,80 -71,-1 -12,-28 -65,21 3,29 z"
       id="path12"
       inkscape:connector-curvature="0" />
    <path
       style="fill:#008000;stroke:none;stroke-width:1px;stroke-linecap:butt;stroke-linejoin:miter;stroke-opacity:1"
       d="m 120,184 39,-22 11,-36 -18,-16 H 90 l 15,60 z"
       id="path4526"
       inkscape:connector-curvature="0" />
    <path
       style="fill:#008000;stroke:none;stroke-width:1px;stroke-linecap:butt;stroke-linejoin:miter;stroke-opacity:1"
       d="m 301,87 33,23 h 38 V 95 L 352,35 322,55 Z"
       id="path4528"
       inkscape:connector-curvature="0" />
  </g>
</svg>
